# xmcd
#
# Track frame offsets: 
#        150
#        12050
#        24198
#        35238
#        52088
#        60850
#        72158
#        85393
#        94348
#        105930
#        118660
#        132268
#
# Disc length: 1907 seconds
#
# Revision: 0
# Processed by: cddbd v1.5.2PL0 Copyright (c) Steve Scherf et al.
# Submitted via: ExactAudioCopy v0.99pb5
#
DISCID=9607710c
DTITLE=Various Artist - Goldene Volksmusikparade
DYEAR=1993
DGENRE=Pop
TTITLE0=Tiroler Bravourjodler
TTITLE1=Alte Kameraden
TTITLE2=Rosamunde
TTITLE3=Innsbruck, du wunderschöne Alpenstadt
TTITLE4=Ja so warns, die alten Rittersleut
TTITLE5=Hoch auf den gelben Wagen
TTITLE6=Bozener Bergsteigermarsch
TTITLE7=Einen Jodler hör i gern
TTITLE8=Annen-Polka
TTITLE9=Lustig ist das Zigeunerleben
TTITLE10=In einem Polenstädtchen
TTITLE11=Wenn i von der Alm owageh
EXTD=
EXTT0=
EXTT1=
EXTT2=
EXTT3=
EXTT4=
EXTT5=
EXTT6=
EXTT7=
EXTT8=
EXTT9=
EXTT10=
EXTT11=
PLAYORDER=
